<svg width="24" height="24" viewBox="0 0 24 24" fill="none" xmlns="http://www.w3.org/2000/svg">
<g id="add2-icon">
<path id="Union" fill-rule="evenodd" clip-rule="evenodd" d="M12 5.0625C8.16852 5.0625 5.0625 8.16852 5.0625 12C5.0625 15.8315 8.16852 18.9375 12 18.9375C15.8315 18.9375 18.9375 15.8315 18.9375 12C18.9375 8.16852 15.8315 5.0625 12 5.0625ZM3.9375 12C3.9375 7.5472 7.5472 3.9375 12 3.9375C16.4528 3.9375 20.0625 7.5472 20.0625 12C20.0625 16.4528 16.4528 20.0625 12 20.0625C7.5472 20.0625 3.9375 16.4528 3.9375 12ZM12 8.0625C12.3107 8.0625 12.5625 8.31434 12.5625 8.625V11.4375H15.375C15.6857 11.4375 15.9375 11.6893 15.9375 12C15.9375 12.3107 15.6857 12.5625 15.375 12.5625H12.5625V15.375C12.5625 15.6857 12.3107 15.9375 12 15.9375C11.6893 15.9375 11.4375 15.6857 11.4375 15.375V12.5625H8.625C8.31434 12.5625 8.0625 12.3107 8.0625 12C8.0625 11.6893 8.31434 11.4375 8.625 11.4375H11.4375V8.625C11.4375 8.31434 11.6893 8.0625 12 8.0625Z" fill="white"/>
</g>
</svg>
