<svg width="25" height="24" viewBox="0 0 25 24" fill="none" xmlns="http://www.w3.org/2000/svg">
<g id="document-icon">
<path id="Union" fill-rule="evenodd" clip-rule="evenodd" d="M13.8125 5.06599C13.9305 5.0699 13.9562 5.07681 13.9771 5.08522C14.0083 5.09778 14.0446 5.11952 14.3243 5.39148L17.6058 8.58183C17.7207 8.69353 17.7919 8.76515 17.8367 8.8125H15C14.5727 8.8125 14.3049 8.81147 14.1096 8.78709C13.9312 8.76481 13.8959 8.7313 13.8895 8.72525L13.889 8.72483C13.8837 8.71983 13.8791 8.71496 13.8724 8.69977C13.8636 8.67992 13.8501 8.63942 13.8387 8.56093C13.8139 8.38931 13.8125 8.1501 13.8125 7.75V5.06599ZM12.6875 5.06251H9.92857C9.10498 5.06251 8.54232 5.06364 8.12044 5.11879C7.71316 5.17202 7.52278 5.26648 7.39421 5.39148C7.26786 5.51432 7.17369 5.69307 7.11996 6.08161C7.06376 6.48799 7.0625 7.03133 7.0625 7.83334V16.1667C7.0625 16.9687 7.06376 17.512 7.11996 17.9184C7.17369 18.3069 7.26786 18.4857 7.39421 18.6085C7.52278 18.7335 7.71316 18.828 8.12044 18.8812C8.54232 18.9364 9.10498 18.9375 9.92857 18.9375H15.0714C15.895 18.9375 16.4577 18.9364 16.8796 18.8812C17.2868 18.828 17.4772 18.7335 17.6058 18.6085C17.7321 18.4857 17.8263 18.3069 17.88 17.9184C17.9362 17.512 17.9375 16.9687 17.9375 16.1667V9.9375L14.9669 9.9375C14.5828 9.93753 14.2436 9.93755 13.9702 9.90342C13.6768 9.86679 13.3748 9.78251 13.1235 9.54922C12.8664 9.31044 12.7676 9.01374 12.7253 8.72214C12.6874 8.46019 12.6875 8.13799 12.6875 7.78612L12.6875 7.75V5.06251ZM14.3974 4.04167C14.1354 3.93616 13.8533 3.93678 13.5698 3.93741L13.5042 3.93751L9.88971 3.93751C9.11466 3.93749 8.47801 3.93748 7.97463 4.00328C7.44827 4.07208 6.98354 4.22169 6.61 4.58486C6.23425 4.95017 6.07736 5.40833 6.00557 5.9275C5.93746 6.42 5.93748 7.04167 5.9375 7.79279V16.2072C5.93748 16.9584 5.93746 17.58 6.00557 18.0725C6.07736 18.5917 6.23425 19.0499 6.61 19.4152C6.98354 19.7783 7.44827 19.9279 7.97463 19.9967C8.478 20.0625 9.11464 20.0625 9.88967 20.0625H15.1103C15.8854 20.0625 16.522 20.0625 17.0254 19.9967C17.5517 19.9279 18.0165 19.7783 18.39 19.4152C18.7658 19.0499 18.9226 18.5917 18.9944 18.0725C19.0625 17.58 19.0625 16.9584 19.0625 16.2073V9.35703L19.0626 9.29203C19.0633 9.0182 19.0641 8.73493 18.9522 8.47248C18.8411 8.21168 18.637 8.01418 18.4374 7.82118L18.39 7.77521L15.1085 4.58486L15.0622 4.53975C14.8621 4.34429 14.6609 4.1478 14.3974 4.04167ZM9.875 12.1875C9.56434 12.1875 9.3125 12.4393 9.3125 12.75C9.3125 13.0607 9.56434 13.3125 9.875 13.3125L15.125 13.3125C15.4357 13.3125 15.6875 13.0607 15.6875 12.75C15.6875 12.4393 15.4357 12.1875 15.125 12.1875L9.875 12.1875ZM9.3125 16.125C9.3125 15.8143 9.56434 15.5625 9.875 15.5625H13.25C13.5607 15.5625 13.8125 15.8143 13.8125 16.125C13.8125 16.4357 13.5607 16.6875 13.25 16.6875H9.875C9.56434 16.6875 9.3125 16.4357 9.3125 16.125Z" fill="#132027"/>
</g>
</svg>
