<svg width="68" height="68" viewBox="0 0 68 68" fill="none" xmlns="http://www.w3.org/2000/svg">
<g id="download-icon">
<path id="Vector 9 (Stroke)" fill-rule="evenodd" clip-rule="evenodd" d="M21.3799 25.7571C22.0182 25.1532 23.0234 25.1829 23.6251 25.8233L32.5286 35.299L32.5286 17C32.5286 16.1198 33.2397 15.4063 34.1168 15.4063C34.994 15.4063 35.7051 16.1198 35.7051 17L35.7051 35.299L44.6086 25.8233C45.2103 25.1829 46.2155 25.1532 46.8537 25.7571C47.492 26.3609 47.5215 27.3696 46.9198 28.01L35.2724 40.4058C34.9724 40.7252 34.5543 40.9063 34.1168 40.9063C33.6794 40.9063 33.2613 40.7252 32.9612 40.4058L21.3139 28.01C20.7121 27.3696 20.7417 26.3609 21.3799 25.7571Z" fill="#BEC8D4"/>
<path id="Vector 114 (Stroke)" fill-rule="evenodd" clip-rule="evenodd" d="M17.1752 41.9688C18.0524 41.9688 18.7635 42.6823 18.7635 43.5625V46.0417C18.7635 47.931 20.2503 49.4062 22.0157 49.4062L46.218 49.4062C47.9834 49.4062 49.4701 47.931 49.4701 46.0417V43.5625C49.4701 42.6823 50.1812 41.9688 51.0584 41.9688C51.9356 41.9688 52.6467 42.6823 52.6467 43.5625V46.0417C52.6467 49.6291 49.7992 52.5938 46.218 52.5938L22.0157 52.5937C18.4345 52.5937 15.587 49.6291 15.587 46.0417V43.5625C15.587 42.6823 16.2981 41.9688 17.1752 41.9688Z" fill="#BEC8D4"/>
</g>
</svg>
