<svg width="28" height="28" viewBox="0 0 28 28" fill="none" xmlns="http://www.w3.org/2000/svg">
<g id="filter-icon">
<path id="Union" fill-rule="evenodd" clip-rule="evenodd" d="M13.3438 10.0625C13.3438 9.45844 12.8541 8.96875 12.25 8.96875C11.6459 8.96875 11.1562 9.45844 11.1562 10.0625C11.1562 10.6666 11.6459 11.1562 12.25 11.1562C12.8541 11.1562 13.3438 10.6666 13.3438 10.0625ZM12.25 7.65625C13.3514 7.65625 14.28 8.39628 14.5657 9.40625L20.5625 9.40625C20.9249 9.40625 21.2188 9.70006 21.2188 10.0625C21.2188 10.4249 20.9249 10.7187 20.5625 10.7187L14.5657 10.7187C14.28 11.7287 13.3514 12.4688 12.25 12.4688C11.1486 12.4688 10.22 11.7287 9.93433 10.7187L7.4375 10.7187C7.07506 10.7187 6.78125 10.4249 6.78125 10.0625C6.78125 9.70006 7.07506 9.40625 7.4375 9.40625L9.93433 9.40625C10.22 8.39628 11.1486 7.65625 12.25 7.65625ZM18.5032 17.7188C18.2175 16.7088 17.2889 15.9688 16.1875 15.9688C15.0861 15.9688 14.1575 16.7088 13.8718 17.7187L7.4375 17.7187C7.07506 17.7187 6.78125 18.0126 6.78125 18.375C6.78125 18.7374 7.07506 19.0312 7.4375 19.0312L13.8718 19.0312C14.1575 20.0412 15.0861 20.7812 16.1875 20.7812C17.2889 20.7812 18.2175 20.0412 18.5032 19.0312H20.5625C20.9249 19.0312 21.2188 18.7374 21.2188 18.375C21.2188 18.0126 20.9249 17.7188 20.5625 17.7188H18.5032ZM17.2812 18.375C17.2812 17.7709 16.7916 17.2812 16.1875 17.2812C15.5834 17.2812 15.0938 17.7709 15.0938 18.375C15.0938 18.9791 15.5834 19.4688 16.1875 19.4688C16.7916 19.4688 17.2812 18.9791 17.2812 18.375Z" fill="#0902D4"/>
</g>
</svg>
