<svg width="19" height="14" viewBox="0 0 19 14" fill="none" xmlns="http://www.w3.org/2000/svg">
<g id="Group 95">
<path id="Union" fill-rule="evenodd" clip-rule="evenodd" d="M10.0625 4.1875C10.0625 2.94486 11.0699 1.9375 12.3125 1.9375C13.5551 1.9375 14.5625 2.94486 14.5625 4.1875C14.5625 5.43014 13.5551 6.4375 12.3125 6.4375C11.0699 6.4375 10.0625 5.43014 10.0625 4.1875ZM12.3125 0.8125C10.4485 0.8125 8.93751 2.32354 8.93751 4.1875C8.93751 6.05146 10.4485 7.5625 12.3125 7.5625C14.1765 7.5625 15.6875 6.05146 15.6875 4.1875C15.6875 2.32354 14.1765 0.8125 12.3125 0.8125ZM5.24553 6.4375C4.10862 6.4375 3.01193 6.85743 2.12478 7.61863C1.2389 8.37873 0.611549 9.43557 0.327985 10.6189C0.255592 10.921 0.441812 11.2246 0.74392 11.297C1.04603 11.3694 1.34962 11.1832 1.42201 10.8811C1.65404 9.9128 2.1628 9.06836 2.85735 8.47242C3.55062 7.87758 4.39035 7.5625 5.24553 7.5625C6.10071 7.5625 6.94044 7.87758 7.63371 8.47243C7.86948 8.67472 8.2246 8.64758 8.4269 8.41181C8.62919 8.17605 8.60205 7.82093 8.36629 7.61863C7.47913 6.85744 6.38244 6.4375 5.24553 6.4375ZM4.81251 2.3125C4.19119 2.3125 3.68751 2.81618 3.68751 3.4375C3.68751 4.05882 4.19119 4.5625 4.81251 4.5625C5.43383 4.5625 5.93751 4.05882 5.93751 3.4375C5.93751 2.81618 5.43383 2.3125 4.81251 2.3125ZM2.56251 3.4375C2.56251 2.19486 3.56987 1.1875 4.81251 1.1875C6.05515 1.1875 7.06251 2.19486 7.06251 3.4375C7.06251 4.68014 6.05515 5.6875 4.81251 5.6875C3.56987 5.6875 2.56251 4.68014 2.56251 3.4375ZM12.3125 8.3125C10.8864 8.3125 9.49161 8.70766 8.34431 9.44786C7.19627 10.1885 6.35087 11.2404 5.96406 12.4542C5.86973 12.7502 6.03321 13.0666 6.3292 13.1609C6.62519 13.2553 6.94161 13.0918 7.03594 12.7958C7.33483 11.8579 8.00037 11.0086 8.9542 10.3932C9.90875 9.77735 11.0893 9.4375 12.3125 9.4375C13.5357 9.4375 14.7162 9.77736 15.6708 10.3932C16.6246 11.0086 17.2902 11.8579 17.5891 12.7958C17.6834 13.0918 17.9998 13.2553 18.2958 13.1609C18.5918 13.0666 18.7553 12.7502 18.6609 12.4542C18.2741 11.2404 17.4287 10.1885 16.2807 9.44786C15.1334 8.70766 13.7386 8.3125 12.3125 8.3125Z" fill="#132027"/>
</g>
</svg>
