<svg width="18" height="20" viewBox="0 0 18 20" fill="none" xmlns="http://www.w3.org/2000/svg">
<g id="Group 110">
<path id="Vector 387 (Stroke)" fill-rule="evenodd" clip-rule="evenodd" d="M9.97962 0.826392C10.0755 1.22935 9.82662 1.63376 9.42366 1.72967L8.75904 1.88785C6.44134 2.43949 4.70388 4.36328 4.3904 6.725L3.8123 11.0803C3.75026 11.5477 3.5691 11.9913 3.28621 12.3684L1.8 14.35C1.6764 14.5149 1.79399 14.75 2 14.75H15.8673C16.0791 14.75 16.1949 14.503 16.0594 14.3402L14.9742 13.0356C14.5632 12.5417 14.3382 11.9194 14.3382 11.2769V10.25C14.3382 9.83584 14.674 9.50005 15.0882 9.50005C15.5025 9.50005 15.8382 9.83584 15.8382 10.25V11.2769C15.8382 11.5689 15.9405 11.8518 16.1273 12.0763L17.2126 13.3808C18.161 14.5209 17.3503 16.25 15.8673 16.25H2C0.557924 16.25 -0.265244 14.6037 0.600003 13.45L2.08621 11.4684C2.21479 11.297 2.29714 11.0954 2.32534 10.8829L2.90344 6.52763C3.2987 3.5498 5.48941 1.12415 8.41173 0.428616L9.07635 0.27043C9.4793 0.174522 9.88371 0.423435 9.97962 0.826392Z" fill="#132027"/>
<path id="Vector 388 (Stroke)" fill-rule="evenodd" clip-rule="evenodd" d="M7.24954 17.4734C7.23554 17.0715 6.90532 16.75 6.5 16.75C6.08579 16.75 5.75 17.0858 5.75 17.5H6.5C5.75 17.5 5.75 17.5006 5.75 17.5013L5.75 17.5026L5.75002 17.5054L5.75008 17.5114L5.75037 17.5253C5.75065 17.5353 5.75112 17.547 5.75188 17.5601C5.7534 17.5864 5.75609 17.6188 5.76076 17.6566C5.77009 17.7319 5.78751 17.8297 5.82009 17.9425C5.8855 18.1689 6.01292 18.4581 6.25823 18.7412C6.76676 19.328 7.65421 19.75 9.1 19.75C10.4655 19.75 11.3085 19.315 11.7857 18.7185C12.0128 18.4346 12.1285 18.1478 12.1872 17.9276C12.2165 17.8175 12.2321 17.7223 12.2405 17.6496C12.2446 17.6131 12.247 17.5819 12.2483 17.5568C12.249 17.5442 12.2494 17.5331 12.2497 17.5237L12.2499 17.5106L12.25 17.505L12.25 17.5024L12.25 17.5012C12.25 17.5006 12.25 17.5 11.5 17.5H12.25C12.25 17.0858 11.9142 16.75 11.5 16.75C11.0932 16.75 10.762 17.0739 10.7503 17.4779C10.7503 17.4783 10.7502 17.4788 10.7502 17.4793C10.7491 17.4886 10.746 17.5106 10.7378 17.5411C10.7215 17.6022 10.6872 17.6904 10.6143 17.7815C10.4915 17.935 10.1345 18.25 9.1 18.25C7.9458 18.25 7.53324 17.922 7.39177 17.7588C7.31208 17.6669 7.277 17.5811 7.26116 17.5262C7.25353 17.4998 7.25053 17.481 7.24954 17.4734Z" fill="#132027"/>
<path id="Ellipse 162" d="M18 4.46456C18 6.39755 16.433 7.96456 14.5 7.96456C12.567 7.96456 11 6.39755 11 4.46456C11 2.53156 12.567 0.964556 14.5 0.964556C16.433 0.964556 18 2.53156 18 4.46456Z" fill="#E64545"/>
</g>
</svg>
