<svg width="49" height="54" viewBox="0 0 49 54" fill="none" xmlns="http://www.w3.org/2000/svg">
<g id="Group 52">
<path id="Union" fill-rule="evenodd" clip-rule="evenodd" d="M21.8195 5.55485C21.8195 4.37526 22.7725 3.41901 23.948 3.41901C25.1236 3.41901 26.0765 4.37526 26.0765 5.55485C26.0765 6.73444 25.1236 7.69069 23.948 7.69069C22.7725 7.69069 21.8195 6.73444 21.8195 5.55485ZM23.948 0.231506C21.0181 0.231506 18.643 2.61485 18.643 5.55485C18.643 5.65993 18.646 5.7643 18.652 5.86787L8.87769 11.8227C7.94194 10.9921 6.71171 10.4879 5.36413 10.4879C2.43423 10.4879 0.059082 12.8712 0.059082 15.8112C0.059082 17.9174 1.27807 19.738 3.04672 20.6012V32.4664C1.27807 33.3296 0.059082 35.1501 0.059082 37.2563C0.059082 40.1963 2.43423 42.5797 5.36413 42.5797C6.25424 42.5797 7.09314 42.3597 7.8298 41.971L18.6497 48.1751C18.6452 48.2646 18.643 48.3546 18.643 48.4452C18.643 51.3852 21.0181 53.7686 23.948 53.7686C26.8779 53.7686 29.2531 51.3852 29.2531 48.4452C29.2531 48.2678 29.2444 48.0924 29.2275 47.9194L40.3294 41.5536C41.2071 42.1987 42.2898 42.5797 43.4611 42.5797C46.391 42.5797 48.7661 40.1963 48.7661 37.2563C48.7661 34.7982 47.1058 32.7293 44.8491 32.117V20.9505C47.1058 20.3383 48.7661 18.2693 48.7661 15.8112C48.7661 12.8712 46.391 10.4879 43.4611 10.4879C42.0946 10.4879 40.8488 11.0063 39.9084 11.8579L34.5345 8.39132L29.2469 5.29626C29.1125 2.47636 26.7915 0.231506 23.948 0.231506ZM38.2928 14.605L32.8745 11.1099L28.3812 8.47973C27.4326 9.9246 25.8013 10.8782 23.948 10.8782C22.2763 10.8782 20.7851 10.1022 19.8127 8.8897L10.5197 14.5513C10.6174 14.9553 10.6692 15.3772 10.6692 15.8112C10.6692 18.4577 8.74461 20.6531 6.22327 21.0651V32.0024C8.74461 32.4144 10.6692 34.6098 10.6692 37.2563C10.6692 38.1029 10.4722 38.9033 10.1218 39.614L19.7798 45.1519C20.7512 43.9156 22.2573 43.1219 23.948 43.1219C25.5547 43.1219 26.9945 43.8386 27.9674 44.9708L38.4362 38.9679C38.2546 38.4308 38.1561 37.8551 38.1561 37.2563C38.1561 34.9461 39.6227 32.9795 41.6726 32.2431V20.8245C39.6227 20.088 38.1561 18.1215 38.1561 15.8112C38.1561 15.3964 38.2033 14.9926 38.2928 14.605ZM23.948 22.9993C21.7461 22.9993 19.9611 24.7904 19.9611 26.9999C19.9611 29.2094 21.7461 31.0005 23.948 31.0005C26.1499 31.0005 27.9349 29.2094 27.9349 26.9999C27.9349 24.7904 26.1499 22.9993 23.948 22.9993ZM16.7845 26.9999C16.7845 23.03 19.9917 19.8118 23.948 19.8118C27.9042 19.8118 31.1114 23.03 31.1114 26.9999C31.1114 30.9698 27.9042 34.188 23.948 34.188C19.9917 34.188 16.7845 30.9698 16.7845 26.9999ZM21.8195 48.4452C21.8195 47.2657 22.7725 46.3094 23.948 46.3094C25.1236 46.3094 26.0765 47.2657 26.0765 48.4452C26.0765 49.6248 25.1236 50.5811 23.948 50.5811C22.7725 50.5811 21.8195 49.6248 21.8195 48.4452ZM5.36413 35.1205C4.18859 35.1205 3.23563 36.0767 3.23563 37.2563C3.23563 38.4359 4.18859 39.3922 5.36413 39.3922C6.53967 39.3922 7.49263 38.4359 7.49263 37.2563C7.49263 36.0767 6.53967 35.1205 5.36413 35.1205ZM3.23563 15.8112C3.23563 14.6316 4.18859 13.6754 5.36413 13.6754C6.53967 13.6754 7.49263 14.6316 7.49263 15.8112C7.49263 16.9908 6.53967 17.9471 5.36413 17.9471C4.18859 17.9471 3.23563 16.9908 3.23563 15.8112ZM43.4611 35.1205C42.2856 35.1205 41.3326 36.0767 41.3326 37.2563C41.3326 38.4359 42.2856 39.3922 43.4611 39.3922C44.6366 39.3922 45.5896 38.4359 45.5896 37.2563C45.5896 36.0767 44.6366 35.1205 43.4611 35.1205ZM41.3326 15.8112C41.3326 14.6316 42.2856 13.6754 43.4611 13.6754C44.6366 13.6754 45.5896 14.6316 45.5896 15.8112C45.5896 16.9908 44.6366 17.9471 43.4611 17.9471C42.2856 17.9471 41.3326 16.9908 41.3326 15.8112Z" fill="#D7DDE5"/>
</g>
</svg>
