<svg width="68" height="68" viewBox="0 0 68 68" fill="none" xmlns="http://www.w3.org/2000/svg">
<g id="lines-view-icon">
<path id="Rectangle 35 (Stroke)" fill-rule="evenodd" clip-rule="evenodd" d="M22.4013 17.5313H45.8324C46.7637 17.5312 47.5671 17.5312 48.2263 17.5911C48.9234 17.6545 49.6137 17.7949 50.2643 18.1718C50.9886 18.5915 51.5901 19.195 52.0083 19.9219C52.3839 20.5747 52.5238 21.2674 52.587 21.9669C52.6467 22.6284 52.6467 23.4344 52.6467 24.369V24.506C52.6467 25.4406 52.6467 26.2466 52.587 26.9081C52.5238 27.6076 52.3839 28.3003 52.0083 28.9531C51.5901 29.68 50.9886 30.2835 50.2643 30.7032C49.6137 31.0801 48.9234 31.2205 48.2263 31.2839C47.5671 31.3438 46.7638 31.3438 45.8324 31.3438H22.4012C21.4699 31.3438 20.6666 31.3438 20.0074 31.2839C19.3102 31.2205 18.62 31.0801 17.9694 30.7032C17.245 30.2835 16.6435 29.68 16.2253 28.9531C15.8497 28.3003 15.7098 27.6076 15.6467 26.9081C15.5869 26.2466 15.5869 25.4405 15.587 24.506V24.369C15.5869 23.4345 15.5869 22.6284 15.6467 21.9669C15.7098 21.2674 15.8497 20.5747 16.2253 19.9219C16.6435 19.195 17.245 18.5915 17.9694 18.1718C18.62 17.7949 19.3102 17.6545 20.0074 17.5911C20.6666 17.5312 21.4699 17.5312 22.4013 17.5313ZM20.2941 20.7656C19.8173 20.809 19.6442 20.8821 19.5577 20.9323C19.3162 21.0722 19.1157 21.2733 18.9763 21.5156C18.9264 21.6025 18.8535 21.7762 18.8102 22.2546C18.765 22.7549 18.7635 23.4151 18.7635 24.4375C18.7635 25.4599 18.765 26.1201 18.8102 26.6204C18.8535 27.0989 18.9264 27.2725 18.9763 27.3594C19.1157 27.6017 19.3162 27.8029 19.5577 27.9427C19.6442 27.9929 19.8173 28.066 20.2941 28.1094C20.7927 28.1547 21.4506 28.1563 22.4695 28.1563H45.7642C46.783 28.1563 47.441 28.1547 47.9396 28.1094C48.4164 28.066 48.5895 27.9929 48.676 27.9427C48.9174 27.8029 49.1179 27.6017 49.2573 27.3594C49.3073 27.2725 49.3802 27.0989 49.4234 26.6204C49.4686 26.1201 49.4701 25.4599 49.4701 24.4375C49.4701 23.4151 49.4686 22.7549 49.4234 22.2546C49.3802 21.7762 49.3073 21.6025 49.2573 21.5156C49.1179 21.2733 48.9174 21.0722 48.676 20.9323C48.5895 20.8821 48.4164 20.809 47.9396 20.7656C47.441 20.7203 46.783 20.7188 45.7642 20.7188H22.4695C21.4506 20.7188 20.7927 20.7203 20.2941 20.7656Z" fill="#D7DDE5"/>
<path id="Rectangle 36 (Stroke)" fill-rule="evenodd" clip-rule="evenodd" d="M22.4013 36.6563H45.8324C46.7637 36.6562 47.5671 36.6562 48.2263 36.7161C48.9234 36.7795 49.6137 36.9199 50.2643 37.2968C50.9886 37.7165 51.5901 38.32 52.0083 39.0469C52.3839 39.6997 52.5238 40.3924 52.587 41.0919C52.6467 41.7534 52.6467 42.5594 52.6467 43.494V43.631C52.6467 44.5656 52.6467 45.3716 52.587 46.0331C52.5238 46.7326 52.3839 47.4253 52.0083 48.0781C51.5901 48.805 50.9886 49.4085 50.2643 49.8282C49.6137 50.2051 48.9234 50.3455 48.2263 50.4089C47.5671 50.4688 46.7638 50.4688 45.8324 50.4688H22.4012C21.4699 50.4688 20.6666 50.4688 20.0074 50.4089C19.3102 50.3455 18.62 50.2051 17.9694 49.8282C17.245 49.4085 16.6435 48.805 16.2253 48.0781C15.8497 47.4253 15.7098 46.7326 15.6467 46.0331C15.5869 45.3716 15.5869 44.5655 15.587 43.631V43.494C15.5869 42.5595 15.5869 41.7534 15.6467 41.0919C15.7098 40.3924 15.8497 39.6997 16.2253 39.0469C16.6435 38.32 17.245 37.7165 17.9694 37.2968C18.62 36.9199 19.3102 36.7795 20.0074 36.7161C20.6666 36.6562 21.4699 36.6562 22.4013 36.6563ZM20.2941 39.8906C19.8173 39.934 19.6442 40.0071 19.5577 40.0573C19.3162 40.1972 19.1157 40.3983 18.9763 40.6406C18.9264 40.7275 18.8535 40.9012 18.8102 41.3796C18.765 41.8799 18.7635 42.5401 18.7635 43.5625C18.7635 44.5849 18.765 45.2451 18.8102 45.7454C18.8535 46.2239 18.9264 46.3975 18.9763 46.4844C19.1157 46.7267 19.3162 46.9279 19.5577 47.0677C19.6442 47.1179 19.8173 47.191 20.2941 47.2344C20.7927 47.2797 21.4506 47.2813 22.4695 47.2813H45.7642C46.783 47.2813 47.441 47.2797 47.9396 47.2344C48.4164 47.191 48.5895 47.1179 48.676 47.0677C48.9174 46.9279 49.1179 46.7267 49.2573 46.4844C49.3073 46.3975 49.3802 46.2239 49.4234 45.7454C49.4686 45.2451 49.4701 44.5849 49.4701 43.5625C49.4701 42.5401 49.4686 41.8799 49.4234 41.3796C49.3802 40.9012 49.3073 40.7275 49.2573 40.6406C49.1179 40.3983 48.9174 40.1972 48.676 40.0573C48.5895 40.0071 48.4164 39.934 47.9396 39.8906C47.441 39.8453 46.783 39.8438 45.7642 39.8438H22.4695C21.4506 39.8438 20.7927 39.8453 20.2941 39.8906Z" fill="#D7DDE5"/>
</g>
</svg>
