<svg width="68" height="68" viewBox="0 0 68 68" fill="none" xmlns="http://www.w3.org/2000/svg">
<g id="safety-management-icon">
<path id="Union" fill-rule="evenodd" clip-rule="evenodd" d="M52.4684 17.2121L35.697 9.99952C34.6315 9.54134 33.4256 9.54134 32.3601 9.99952L15.5887 17.2121C13.8704 17.951 12.8382 19.7329 13.0486 21.5968L15.1742 40.425C15.5009 43.3191 17.1243 45.9061 19.5842 47.4524L31.7801 55.1187C33.1553 55.9831 34.9018 55.9831 36.277 55.1187L48.4729 47.4524C50.9328 45.9061 52.5562 43.3191 52.8829 40.425L55.0085 21.5968C55.2189 19.7329 54.1866 17.951 52.4684 17.2121ZM16.205 21.238C16.1524 20.7721 16.4104 20.3266 16.84 20.1418L33.6115 12.9293C33.8778 12.8147 34.1793 12.8147 34.4457 12.9293L51.2171 20.1418C51.6467 20.3266 51.9047 20.7721 51.8521 21.238L49.7266 40.0662C49.5088 41.9956 48.4265 43.7203 46.7866 44.7511L34.5907 52.4174C34.2469 52.6335 33.8102 52.6335 33.4664 52.4174L21.2705 44.7511C19.6306 43.7203 18.5483 41.9956 18.3305 40.0662L16.205 21.238ZM43.6901 28.7723C44.3215 28.1613 44.3398 27.1523 43.7309 26.5187C43.1221 25.8851 42.1166 25.8668 41.4851 26.4778L32.705 34.9735L28.8662 31.259C28.2348 30.648 27.2293 30.6664 26.6204 31.3C26.0115 31.9336 26.0298 32.9425 26.6613 33.5535L31.6026 38.3348C32.2178 38.9301 33.1923 38.9301 33.8075 38.3348L43.6901 28.7723Z" fill="#D7DDE5"/>
</g>
</svg>
