<svg width="28" height="28" viewBox="0 0 28 28" fill="none" xmlns="http://www.w3.org/2000/svg">
<g id="Search dark mode/Variant3">
<path id="Union" fill-rule="evenodd" clip-rule="evenodd" d="M7.875 12.4688C7.875 9.69007 10.1276 7.4375 12.9062 7.4375C15.6849 7.4375 17.9375 9.69007 17.9375 12.4688C17.9375 13.7842 17.4327 14.9817 16.6062 15.8782C16.5484 15.9135 16.4938 15.9562 16.4438 16.0063C16.3937 16.0563 16.351 16.1109 16.3157 16.1687C15.4192 16.9952 14.2217 17.5 12.9062 17.5C10.1276 17.5 7.875 15.2474 7.875 12.4688ZM17.0428 17.8427C15.898 18.7251 14.4634 19.25 12.9062 19.25C9.16107 19.25 6.125 16.2139 6.125 12.4688C6.125 8.72357 9.16107 5.6875 12.9062 5.6875C16.6514 5.6875 19.6875 8.72357 19.6875 12.4688C19.6875 14.0259 19.1626 15.4605 18.2802 16.6053L20.3062 18.6313C20.6479 18.973 20.6479 19.527 20.3062 19.8687C19.9645 20.2104 19.4105 20.2104 19.0688 19.8687L17.0428 17.8427Z" fill="#0902D4"/>
</g>
</svg>
